<svg width="1905" height="690" viewBox="0 0 1905 690" fill="none" xmlns="http://www.w3.org/2000/svg">
<path d="M889.223 232.417C895.37 224.374 910.011 207.155 918.923 202.703H920.743L926.312 200.846C928.168 198.989 932.261 195.274 933.687 195.274C935.544 195.274 957.831 221.274 961.544 226.846C965.256 232.417 963.4 234.225 963.4 237.989C963.4 240.965 960.941 240.448 959.712 239.846L952.336 291.858L957.905 310.43L1037.72 276.989L1047.01 295.572C1025.36 306.715 979.393 330.489 969.043 336.43C958.692 342.37 949.853 343.809 946.767 343.809L944.899 358.666H865.079C853.192 358.666 846.517 354.976 844.661 353.095C843.487 321.276 851.201 289.759 866.936 262.082C872.886 251.739 884.269 237.989 889.223 232.417Z" fill="white"/>
<path d="M943.547 252.846C945.022 263.165 957.45 311.389 957.45 311.389L1067.24 264.653L1079.03 279.412C1079.03 279.412 1006.87 319.186 962.687 339.812C918.506 360.437 911.142 307.416 902.315 248.504" stroke="#4A235A" stroke-width="1.56" stroke-miterlimit="10"/>
<path d="M964.162 229.306L962.933 240.092C962.896 240.337 962.799 240.57 962.65 240.768C962.502 240.969 962.302 241.126 962.072 241.223C961.844 241.336 961.586 241.374 961.335 241.334C961.086 241.305 960.849 241.212 960.646 241.063L959.995 240.571L960.302 236.451C960.567 232.96 959.879 229.463 958.312 226.332C956.744 223.202 954.356 220.557 951.402 218.679L927.307 203.355C926.431 202.816 925.483 202.402 924.492 202.125L929.95 196.098C930.352 195.66 930.843 195.313 931.389 195.078C931.94 194.843 932.536 194.734 933.134 194.758C933.727 194.772 934.31 194.915 934.843 195.176C935.378 195.439 935.848 195.817 936.22 196.283L964.162 229.306Z" stroke="#4A235A" stroke-width="1.56" stroke-miterlimit="10"/>
<path d="M924.541 202.039C925.532 202.316 926.48 202.73 927.356 203.269L951.476 218.618C954.429 220.495 956.818 223.141 958.385 226.271C959.953 229.401 960.641 232.899 960.376 236.39L960.069 240.51" stroke="#4A235A" stroke-width="1.56" stroke-miterlimit="10"/>
<path d="M960.081 240.547L953.246 293.752" stroke="#4A235A" stroke-width="1.56" stroke-miterlimit="10"/>
<path d="M844.992 355.198C838.538 280.014 891.928 224.62 914.658 204.314C915.974 203.115 917.573 202.269 919.305 201.854C921.033 201.45 922.836 201.496 924.541 201.99" stroke="#4A235A" stroke-width="1.56" stroke-miterlimit="10"/>
<path d="M989.584 157.799C989.88 147.075 978.435 129.512 954.77 135.981C931.106 142.45 921.653 162.608 926.066 173.259C930.479 183.91 940.326 189.334 950.222 183.59C950.222 183.59 944.69 172.964 952.533 167.7C960.376 162.436 961.47 173.616 960.192 177.834C958.913 182.053 967.137 175.375 970.751 168.807C972.728 168.83 974.689 168.455 976.517 167.705C978.346 166.955 980.006 165.845 981.397 164.441C983.793 161.845 986.55 159.608 989.584 157.799Z" fill="#4A235A"/>
<path d="M952.545 135.145C953.619 134.494 954.468 133.53 954.978 132.382C955.488 131.235 955.634 129.958 955.397 128.725C953.479 118.738 942.551 104.004 925.119 110.744C904.712 118.615 914.326 137.1 923.644 136.94C929.471 137.023 935.043 139.343 939.207 143.422L952.545 135.145Z" fill="#4A235A"/>
<path d="M954.819 194.709C954.819 194.709 972.792 211.189 976.566 209.012C980.34 206.835 985.356 191.277 985.356 191.277C987.411 191.563 989.504 191.42 991.502 190.859C993.42 189.875 988.122 182.041 988.478 175.99C988.835 169.938 990.58 161.981 988.675 158.279" stroke="#4A235A" stroke-width="1.56" stroke-miterlimit="10"/>
<path d="M934.708 195.397C938.663 191.711 942.222 187.622 945.329 183.197" stroke="#4A235A" stroke-width="1.56" stroke-miterlimit="10"/>
<path d="M965.49 203.589C965.49 203.589 955.164 215.654 955.25 220.327" stroke="#4A235A" stroke-width="1.56" stroke-miterlimit="10"/>
<path d="M988.724 158.279C987.704 162.891 979.627 172.398 972.165 171.587" stroke="#4A235A" stroke-width="1.56" stroke-miterlimit="10"/>
<path d="M941.002 145.525C938.629 143.225 931.622 137.863 925.549 139.105C919.476 140.347 918.051 137.494 918.051 137.494" stroke="#4A235A" stroke-width="1.56" stroke-miterlimit="10"/>
<path d="M1037.69 277.222L1047.66 296.372" stroke="#4A235A" stroke-width="1.56" stroke-miterlimit="10"/>
<path d="M1068.72 266.116C1068.72 266.116 1071.92 258.343 1073.87 256.658C1075.1 255.564 1078.66 256.806 1081.02 257.888C1081.24 257.977 1081.43 258.126 1081.56 258.319C1081.7 258.515 1081.78 258.744 1081.8 258.983C1081.82 259.224 1081.77 259.466 1081.67 259.683C1081.56 259.901 1081.4 260.084 1081.19 260.213L1077.5 262.586C1077.5 262.586 1077.41 266.424 1080.18 266.571C1082.1 266.571 1094.1 260.68 1100.59 257.322C1100.74 257.274 1100.9 257.274 1101.05 257.322C1101.2 257.371 1101.33 257.466 1101.43 257.593C1101.51 257.725 1101.55 257.88 1101.54 258.036C1101.53 258.196 1101.46 258.348 1101.35 258.466C1094.92 264.481 1087.83 273.225 1077.54 278.009" stroke="#4A235A" stroke-width="1.56" stroke-miterlimit="10"/>
<path d="M1077.52 262.501L1113.78 245.356C1113.95 245.284 1114.14 245.243 1114.32 245.233C1114.5 245.234 1114.68 245.271 1114.85 245.343C1115.02 245.415 1115.17 245.52 1115.29 245.651C1115.42 245.785 1115.51 245.944 1115.56 246.118L1116.14 247.865C1116.28 248.221 1116.28 248.615 1116.14 248.972C1116 249.328 1115.73 249.618 1115.38 249.783L1079.73 266.867L1077.52 262.501Z" fill="#4A235A"/>
<path d="M901.59 249.55C901.59 249.55 895.296 353.882 945.022 353.513L945.981 344.301C945.981 344.301 929.36 345.531 920.46 327.734C911.56 309.937 901.59 249.55 901.59 249.55Z" fill="#4A235A"/>
<path d="M944.198 252.76L954.438 283.765L953.209 293.174L946.718 267.937L944.198 252.76Z" fill="#4A235A"/>
<path d="M938.875 191.277L955.225 217.991L934.991 195.139L938.875 191.277Z" fill="#4A235A"/>
<path d="M913.662 689.152C914.047 643.335 932.509 599.527 965.028 567.266C997.547 535.004 1041.49 516.903 1087.28 516.903C1133.08 516.903 1177.02 535.004 1209.54 567.266C1242.06 599.527 1260.52 643.335 1260.91 689.152H913.662Z" fill="white"/>
<path d="M955.041 355.591L1066.17 677.824H1045.67L877.102 369.526L955.041 355.591Z" fill="#4A235A"/>
<path d="M1050.39 688.217L1046.32 677.848H1066.91C1075.14 677.848 1079.72 681.145 1086.05 685.056C1086.3 685.184 1086.5 685.396 1086.62 685.655C1086.73 685.915 1086.75 686.206 1086.68 686.48C1086.6 686.753 1086.44 686.992 1086.21 687.156C1085.97 687.321 1085.69 687.4 1085.41 687.38L1050.39 688.217Z" stroke="#4A235A" stroke-miterlimit="10"/>
<path d="M943.337 602.518L947.247 592.445L962.121 592.629C970.358 592.629 974.931 595.925 981.262 599.849C981.517 599.977 981.719 600.19 981.834 600.451C981.949 600.712 981.97 601.005 981.893 601.279C981.816 601.554 981.646 601.793 981.412 601.956C981.178 602.119 980.895 602.196 980.61 602.173L943.337 602.518Z" stroke="#4A235A" stroke-miterlimit="10"/>
<path d="M976.75 413.581C950.849 420.284 913.674 423.15 883.605 414.073C858.724 406.546 848.988 382.268 844.378 353.808C854.827 361.089 885.437 355.862 932.766 354.841L1037.98 356.071C1041.35 356.112 1044.66 356.97 1047.62 358.572C1050.58 360.174 1053.11 362.471 1054.99 365.267C1056.87 368.063 1058.04 371.273 1058.41 374.622C1058.77 377.971 1058.32 381.359 1057.09 384.494L966.227 592.764L947.198 592.445L1002.04 403.656C996.505 407.235 987.605 410.74 976.701 413.581C950.8 420.284 913.625 423.15 883.556 414.073" fill="#4A235A"/>
<path d="M981.434 419.005H854.507C850.284 419.005 846.861 422.43 846.861 426.655V429.397C846.861 433.622 850.284 437.047 854.507 437.047H981.434C985.657 437.047 989.08 433.622 989.08 429.397V426.655C989.08 422.43 985.657 419.005 981.434 419.005Z" fill="white" stroke="#4A235A" stroke-width="1.29" stroke-miterlimit="10"/>
<path d="M869.579 437.318L830.782 688.057" stroke="#4A235A" stroke-width="1.29" stroke-miterlimit="10"/>
<path d="M970.518 437.318L1009.31 688.057" stroke="#4A235A" stroke-width="1.29" stroke-miterlimit="10"/>
<path d="M920.054 437.724V688.057" stroke="#4A235A" stroke-width="1.29" stroke-miterlimit="10"/>
<path d="M845.718 601.853L994.022 602.8" stroke="#4A235A" stroke-width="1.29" stroke-miterlimit="10"/>
<path d="M945.968 344.313L944.887 355.419" stroke="#4A235A" stroke-width="1.56" stroke-miterlimit="10"/>
<path d="M673.54 606.416H756.322L748.086 688.057H679.883L673.54 606.416Z" stroke="#4A235A" stroke-miterlimit="10"/>
<path d="M620.495 689.988C622.179 689.988 679.65 670.309 679.65 670.309L680.879 687.528L620.495 689.988Z" fill="#4A235A"/>
<path d="M678.224 505.897L712.939 535.279C712.939 535.279 712.411 592.199 712.46 596.024" stroke="#4A235A" stroke-miterlimit="10"/>
<path d="M704.174 527.863L713.48 465.741L766.193 434.563" stroke="#4A235A" stroke-miterlimit="10" stroke-linecap="round"/>
<path d="M735.178 452.913L691.402 369.219L646.458 344.645" stroke="#4A235A" stroke-miterlimit="10" stroke-linecap="round"/>
<path d="M695.348 506.413C694.119 507.902 690.898 507.287 690.898 507.287C690.898 507.287 689.546 504.249 690.726 502.761C690.942 502.391 691.236 502.072 691.586 501.826C691.937 501.58 692.336 501.412 692.758 501.333C693.179 501.255 693.612 501.268 694.027 501.372C694.443 501.476 694.831 501.668 695.166 501.936C695.501 502.203 695.774 502.539 695.968 502.921C696.162 503.304 696.271 503.723 696.288 504.151C696.305 504.58 696.23 505.007 696.068 505.403C695.906 505.8 695.66 506.157 695.348 506.45V506.413Z" fill="#4A235A"/>
<path d="M690.665 513.067C689.435 511.604 690.665 508.529 690.665 508.529C690.665 508.529 693.91 507.84 695.127 509.304C695.447 509.589 695.701 509.939 695.873 510.332C696.045 510.724 696.13 511.149 696.123 511.577C696.115 512.005 696.016 512.427 695.831 512.813C695.646 513.199 695.379 513.541 695.05 513.815C694.721 514.089 694.337 514.288 693.923 514.4C693.51 514.511 693.077 514.533 692.655 514.462C692.233 514.391 691.831 514.229 691.477 513.989C691.123 513.748 690.825 513.434 690.603 513.067H690.665Z" fill="#4A235A"/>
<path d="M685.575 509.045C687.308 509.833 689.927 507.816 689.927 507.816C689.927 507.816 689.73 504.495 687.997 503.72C687.638 503.493 687.235 503.346 686.815 503.288C686.395 503.229 685.967 503.262 685.561 503.382C685.154 503.503 684.778 503.71 684.458 503.988C684.137 504.266 683.88 504.609 683.703 504.995C683.526 505.381 683.434 505.8 683.432 506.224C683.43 506.648 683.52 507.068 683.693 507.455C683.867 507.842 684.122 508.188 684.44 508.468C684.758 508.749 685.132 508.958 685.538 509.082L685.575 509.045Z" fill="#4A235A"/>
<path d="M672.802 496.464C674.216 497.694 673.417 500.953 673.417 500.953C673.417 500.953 670.307 502.183 668.881 500.867C668.515 500.635 668.203 500.326 667.968 499.961C667.733 499.597 667.58 499.186 667.52 498.756C667.46 498.327 667.493 497.889 667.619 497.474C667.745 497.059 667.96 496.677 668.248 496.353C668.536 496.029 668.891 495.772 669.289 495.599C669.687 495.427 670.117 495.343 670.551 495.353C670.984 495.364 671.41 495.469 671.799 495.66C672.188 495.852 672.53 496.126 672.802 496.464Z" fill="#4A235A"/>
<path d="M679.22 501.494C677.695 502.625 674.696 501.174 674.696 501.174C674.696 501.174 674.192 497.89 675.716 496.759C676.019 496.458 676.383 496.226 676.784 496.079C677.184 495.932 677.612 495.872 678.037 495.905C678.462 495.937 678.876 496.061 679.249 496.268C679.623 496.474 679.947 496.759 680.201 497.102C680.455 497.445 680.632 497.839 680.721 498.256C680.809 498.674 680.807 499.106 680.714 499.522C680.62 499.939 680.439 500.33 680.181 500.671C679.923 501.011 679.595 501.292 679.22 501.494Z" fill="#4A235A"/>
<path d="M674.88 506.413C675.765 504.716 673.86 501.986 673.86 501.986C673.86 501.986 670.54 501.986 669.655 503.683C669.395 504.03 669.212 504.429 669.121 504.853C669.03 505.277 669.033 505.716 669.128 506.139C669.224 506.562 669.41 506.959 669.674 507.303C669.939 507.647 670.275 507.929 670.659 508.129C671.043 508.33 671.467 508.445 671.9 508.466C672.333 508.486 672.765 508.413 673.167 508.249C673.568 508.086 673.93 507.837 674.225 507.52C674.521 507.203 674.745 506.825 674.88 506.413Z" fill="#4A235A"/>
<path d="M684.801 526.498C685.895 524.936 689.189 525.366 689.189 525.366C689.189 525.366 690.713 528.318 689.632 529.88C689.444 530.27 689.173 530.615 688.839 530.89C688.505 531.166 688.115 531.365 687.696 531.474C687.277 531.584 686.839 531.601 686.413 531.525C685.987 531.448 685.582 531.28 685.228 531.032C684.873 530.783 684.576 530.461 684.358 530.086C684.141 529.712 684.007 529.295 683.966 528.864C683.926 528.432 683.979 527.997 684.123 527.589C684.267 527.18 684.498 526.808 684.801 526.498Z" fill="#4A235A"/>
<path d="M689.091 519.524C690.394 520.914 689.3 524.062 689.3 524.062C689.3 524.062 686.091 524.948 684.788 523.558C684.445 523.294 684.164 522.958 683.963 522.574C683.763 522.19 683.648 521.767 683.627 521.335C683.606 520.902 683.679 520.47 683.842 520.069C684.004 519.667 684.252 519.306 684.568 519.01C684.884 518.713 685.26 518.489 685.671 518.353C686.082 518.217 686.518 518.172 686.948 518.221C687.378 518.27 687.793 518.412 688.163 518.637C688.533 518.862 688.849 519.165 689.091 519.524Z" fill="#4A235A"/>
<path d="M694.401 523.239C692.631 522.562 690.136 524.764 690.136 524.764C690.136 524.764 690.517 528.072 692.299 528.748C692.674 528.967 693.091 529.101 693.523 529.142C693.954 529.183 694.389 529.13 694.798 528.985C695.207 528.841 695.579 528.61 695.89 528.307C696.2 528.004 696.441 527.638 696.595 527.233C696.75 526.827 696.814 526.394 696.785 525.961C696.755 525.528 696.631 525.108 696.422 524.728C696.214 524.348 695.925 524.018 695.576 523.76C695.227 523.503 694.826 523.325 694.401 523.239Z" fill="#4A235A"/>
<path d="M720.942 512.108C719.049 511.887 717.857 508.787 717.857 508.787C717.857 508.787 719.738 506.032 721.618 506.254C722.052 506.231 722.486 506.303 722.889 506.465C723.292 506.627 723.656 506.875 723.953 507.192C724.251 507.508 724.476 507.886 724.612 508.299C724.749 508.712 724.794 509.149 724.744 509.581C724.694 510.013 724.551 510.429 724.323 510.8C724.096 511.17 723.791 511.487 723.429 511.727C723.067 511.968 722.657 512.127 722.228 512.192C721.798 512.258 721.36 512.229 720.942 512.108Z" fill="#4A235A"/>
<path d="M712.78 511.64C713.382 509.832 716.664 509.316 716.664 509.316C716.664 509.316 718.963 511.776 718.361 513.51C718.286 513.931 718.121 514.331 717.878 514.683C717.635 515.034 717.319 515.33 716.951 515.548C716.583 515.767 716.173 515.903 715.748 515.949C715.323 515.994 714.893 515.947 714.487 515.811C714.082 515.676 713.71 515.454 713.398 515.162C713.086 514.869 712.841 514.513 712.679 514.117C712.517 513.721 712.442 513.295 712.459 512.868C712.477 512.44 712.586 512.022 712.78 511.64Z" fill="#4A235A"/>
<path d="M713.517 505.184C713.763 507.078 716.886 508.221 716.886 508.221C716.886 508.221 719.602 506.315 719.344 504.421C719.35 503.994 719.264 503.571 719.092 503.181C718.92 502.79 718.666 502.441 718.348 502.157C718.029 501.873 717.653 501.661 717.245 501.536C716.838 501.41 716.408 501.374 715.985 501.429C715.562 501.484 715.155 501.63 714.793 501.856C714.432 502.082 714.123 502.384 713.888 502.74C713.652 503.096 713.497 503.498 713.431 503.92C713.365 504.342 713.39 504.773 713.505 505.184H713.517Z" fill="#4A235A"/>
<path d="M723.585 478.126C721.705 477.905 720.512 474.805 720.512 474.805C720.512 474.805 722.381 472.05 724.274 472.272C724.707 472.25 725.141 472.324 725.543 472.487C725.945 472.65 726.307 472.899 726.604 473.216C726.9 473.533 727.124 473.912 727.259 474.324C727.395 474.737 727.438 475.174 727.388 475.606C727.337 476.037 727.193 476.452 726.965 476.822C726.738 477.192 726.433 477.508 726.071 477.748C725.709 477.988 725.299 478.146 724.87 478.211C724.44 478.277 724.002 478.247 723.585 478.126Z" fill="#4A235A"/>
<path d="M715.447 477.683C716.05 475.887 719.332 475.359 719.332 475.359C719.332 475.359 721.643 477.818 721.028 479.565C720.951 479.984 720.784 480.382 720.54 480.732C720.295 481.081 719.978 481.374 719.611 481.59C719.243 481.807 718.834 481.941 718.409 481.985C717.985 482.029 717.557 481.981 717.152 481.845C716.748 481.709 716.379 481.487 716.068 481.196C715.757 480.904 715.512 480.548 715.35 480.154C715.188 479.759 715.113 479.334 715.13 478.908C715.147 478.482 715.255 478.064 715.447 477.683Z" fill="#4A235A"/>
<path d="M716.16 471.251C716.406 473.133 719.529 474.276 719.529 474.276C719.529 474.276 722.258 472.37 721.987 470.476C721.992 470.05 721.904 469.627 721.731 469.238C721.558 468.848 721.303 468.5 720.984 468.218C720.665 467.935 720.288 467.725 719.881 467.6C719.473 467.476 719.044 467.44 718.621 467.497C718.199 467.553 717.793 467.699 717.432 467.925C717.071 468.152 716.763 468.453 716.529 468.809C716.294 469.165 716.139 469.567 716.073 469.989C716.007 470.41 716.033 470.84 716.148 471.251H716.16Z" fill="#4A235A"/>
<path d="M725.405 537.161C723.635 537.862 721.127 535.685 721.127 535.685C721.127 535.685 721.483 532.377 723.254 531.676C723.624 531.465 724.036 531.337 724.461 531.299C724.885 531.262 725.313 531.316 725.715 531.458C726.117 531.601 726.483 531.828 726.79 532.124C727.096 532.421 727.336 532.78 727.491 533.177C727.647 533.574 727.716 534 727.692 534.426C727.669 534.852 727.555 535.268 727.357 535.645C727.159 536.023 726.882 536.354 726.546 536.616C726.209 536.877 725.82 537.063 725.405 537.161Z" fill="#4A235A"/>
<path d="M717.992 540.543C717.673 538.661 720.315 536.656 720.315 536.656C720.315 536.656 723.475 537.677 723.794 539.559C723.927 539.966 723.971 540.396 723.922 540.822C723.873 541.247 723.734 541.656 723.512 542.022C723.291 542.389 722.994 542.703 722.64 542.944C722.287 543.184 721.885 543.346 721.463 543.417C721.042 543.489 720.61 543.469 720.197 543.358C719.783 543.247 719.399 543.049 719.07 542.776C718.74 542.503 718.473 542.162 718.287 541.777C718.102 541.392 718.001 540.971 717.992 540.543Z" fill="#4A235A"/>
<path d="M715.607 534.517C716.713 536.066 720.008 535.599 720.008 535.599C720.008 535.599 721.508 532.635 720.401 531.085C720.21 530.696 719.936 530.353 719.599 530.081C719.262 529.808 718.87 529.612 718.449 529.507C718.029 529.401 717.591 529.388 717.165 529.469C716.739 529.55 716.336 529.722 715.983 529.974C715.631 530.227 715.337 530.553 715.123 530.93C714.91 531.307 714.78 531.726 714.744 532.158C714.709 532.59 714.767 533.025 714.916 533.433C715.065 533.84 715.301 534.21 715.607 534.517Z" fill="#4A235A"/>
<path d="M701.925 563.444C703.806 563.739 704.887 566.887 704.887 566.887C704.887 566.887 702.921 569.556 701.04 569.273C700.606 569.279 700.176 569.191 699.78 569.014C699.384 568.837 699.032 568.576 698.747 568.249C698.462 567.922 698.251 567.536 698.13 567.12C698.009 566.703 697.98 566.265 698.045 565.836C698.11 565.407 698.268 564.998 698.507 564.636C698.747 564.274 699.062 563.969 699.431 563.741C699.8 563.513 700.214 563.369 700.645 563.317C701.076 563.266 701.512 563.309 701.925 563.444Z" fill="#4A235A"/>
<path d="M710.063 564.219C709.387 566.002 706.092 566.408 706.092 566.408C706.092 566.408 703.879 563.948 704.543 562.152C704.626 561.726 704.801 561.324 705.056 560.972C705.311 560.621 705.638 560.329 706.017 560.117C706.396 559.905 706.816 559.779 707.248 559.746C707.681 559.713 708.116 559.774 708.522 559.927C708.928 560.079 709.296 560.318 709.601 560.626C709.906 560.935 710.14 561.307 710.286 561.715C710.433 562.124 710.489 562.559 710.45 562.992C710.412 563.424 710.28 563.843 710.063 564.219Z" fill="#4A235A"/>
<path d="M709.08 570.626C708.908 568.732 705.834 567.465 705.834 567.465C705.834 567.465 703.044 569.273 703.216 571.155C703.194 571.581 703.264 572.007 703.421 572.404C703.578 572.801 703.818 573.16 704.126 573.455C704.434 573.751 704.801 573.977 705.204 574.118C705.607 574.259 706.035 574.311 706.46 574.272C706.885 574.233 707.296 574.103 707.666 573.89C708.036 573.678 708.357 573.389 708.605 573.042C708.854 572.695 709.024 572.298 709.106 571.88C709.188 571.461 709.179 571.029 709.08 570.614V570.626Z" fill="#4A235A"/>
<path d="M701.003 476.552C702.453 477.781 701.74 481.028 701.74 481.028C701.74 481.028 698.667 482.258 697.204 481.028C696.833 480.806 696.514 480.506 696.271 480.148C696.027 479.791 695.864 479.384 695.792 478.957C695.721 478.53 695.743 478.093 695.857 477.676C695.971 477.258 696.175 476.87 696.453 476.539C696.732 476.208 697.079 475.941 697.471 475.758C697.863 475.574 698.29 475.478 698.722 475.476C699.155 475.473 699.583 475.565 699.977 475.744C700.37 475.924 700.72 476.186 701.003 476.515V476.552Z" fill="#4A235A"/>
<path d="M707.555 481.446C706.055 482.676 703.031 481.25 703.031 481.25C703.031 481.25 702.429 477.978 703.929 476.81C704.223 476.499 704.581 476.256 704.978 476.096C705.375 475.936 705.801 475.864 706.228 475.884C706.656 475.905 707.074 476.017 707.454 476.214C707.834 476.41 708.167 476.686 708.431 477.023C708.694 477.36 708.882 477.75 708.981 478.167C709.081 478.583 709.089 479.016 709.006 479.436C708.923 479.855 708.75 480.252 708.5 480.599C708.249 480.946 707.927 481.235 707.555 481.446Z" fill="#4A235A"/>
<path d="M703.388 486.415C704.224 484.706 702.257 482.025 702.257 482.025C702.257 482.025 698.925 482.123 698.089 483.833C697.838 484.186 697.667 484.59 697.587 485.017C697.508 485.444 697.523 485.882 697.63 486.303C697.737 486.723 697.934 487.115 698.208 487.452C698.482 487.788 698.826 488.061 699.216 488.251C699.606 488.441 700.032 488.544 700.466 488.552C700.9 488.561 701.33 488.474 701.727 488.3C702.124 488.125 702.478 487.866 702.765 487.541C703.052 487.215 703.264 486.831 703.388 486.415Z" fill="#4A235A"/>
<path d="M638.455 332.715C639.918 333.945 639.193 337.192 639.193 337.192C639.193 337.192 636.12 338.422 634.669 337.192C634.307 336.967 633.997 336.667 633.761 336.311C633.525 335.956 633.368 335.554 633.301 335.133C633.234 334.712 633.258 334.281 633.372 333.87C633.486 333.459 633.686 333.077 633.96 332.751C634.234 332.424 634.575 332.16 634.96 331.977C635.345 331.793 635.765 331.695 636.191 331.688C636.617 331.681 637.04 331.766 637.431 331.937C637.821 332.108 638.171 332.361 638.455 332.678V332.715Z" fill="#4A235A"/>
<path d="M645.02 337.61C643.52 338.84 640.484 337.413 640.484 337.413C640.484 337.413 639.894 334.142 641.393 332.961C641.687 332.642 642.047 332.391 642.447 332.225C642.848 332.059 643.279 331.982 643.713 332C644.146 332.017 644.57 332.129 644.956 332.327C645.341 332.525 645.679 332.805 645.946 333.147C646.212 333.489 646.402 333.885 646.5 334.307C646.599 334.73 646.604 335.168 646.516 335.593C646.428 336.018 646.248 336.418 645.99 336.766C645.732 337.115 645.401 337.403 645.02 337.61Z" fill="#4A235A"/>
<path d="M640.84 342.579C641.676 340.857 639.709 338.188 639.709 338.188C639.709 338.188 636.39 338.274 635.554 339.984C635.313 340.336 635.151 340.736 635.078 341.157C635.005 341.578 635.023 342.009 635.132 342.422C635.241 342.835 635.436 343.22 635.707 343.55C635.977 343.881 636.315 344.149 636.698 344.337C637.081 344.525 637.501 344.629 637.927 344.641C638.354 344.652 638.778 344.572 639.171 344.405C639.564 344.238 639.916 343.989 640.204 343.674C640.492 343.359 640.709 342.985 640.84 342.579Z" fill="#4A235A"/>
<path d="M647.835 358.998C648.843 357.387 652.162 357.633 652.162 357.633C652.162 357.633 653.847 360.499 652.838 362.11C652.674 362.512 652.423 362.873 652.105 363.168C651.786 363.464 651.407 363.686 650.994 363.82C650.58 363.953 650.143 363.995 649.712 363.943C649.281 363.89 648.866 363.744 648.497 363.514C648.128 363.285 647.814 362.978 647.576 362.614C647.338 362.251 647.182 361.84 647.119 361.41C647.056 360.98 647.087 360.541 647.211 360.125C647.335 359.708 647.548 359.324 647.835 358.998Z" fill="#4A235A"/>
<path d="M651.72 351.816C653.096 353.132 652.175 356.317 652.175 356.317C652.175 356.317 649.015 357.387 647.639 356.059C647.291 355.81 647 355.49 646.787 355.119C646.574 354.749 646.443 354.336 646.404 353.91C646.364 353.485 646.417 353.055 646.558 352.652C646.699 352.248 646.926 351.88 647.222 351.572C647.518 351.263 647.878 351.023 648.275 350.866C648.673 350.709 649.1 350.64 649.527 350.663C649.953 350.687 650.37 350.801 650.749 351C651.127 351.199 651.458 351.477 651.72 351.816Z" fill="#4A235A"/>
<path d="M657.227 355.235C655.42 354.644 653.047 356.981 653.047 356.981C653.047 356.981 653.613 360.265 655.42 360.843C655.803 361.03 656.222 361.133 656.648 361.144C657.074 361.155 657.498 361.074 657.89 360.907C658.282 360.74 658.634 360.49 658.922 360.175C659.209 359.86 659.426 359.487 659.556 359.081C659.687 358.675 659.729 358.246 659.68 357.823C659.63 357.399 659.49 356.991 659.269 356.626C659.049 356.261 658.752 355.948 658.399 355.708C658.047 355.468 657.647 355.306 657.227 355.235Z" fill="#4A235A"/>
<path d="M678.679 349.823C677.806 351.508 674.474 351.52 674.474 351.52C674.474 351.52 672.569 348.802 673.442 347.105C673.578 346.695 673.801 346.319 674.096 346.003C674.392 345.687 674.752 345.44 675.153 345.277C675.553 345.114 675.983 345.04 676.415 345.06C676.847 345.08 677.269 345.194 677.653 345.393C678.037 345.592 678.372 345.872 678.637 346.213C678.902 346.555 679.09 346.95 679.187 347.371C679.285 347.792 679.29 348.23 679.202 348.653C679.114 349.076 678.936 349.476 678.679 349.823Z" fill="#4A235A"/>
<path d="M675.347 357.301C673.872 356.071 674.548 352.836 674.548 352.836C674.548 352.836 677.609 351.533 679.072 352.738C679.45 352.95 679.777 353.242 680.03 353.593C680.283 353.944 680.457 354.347 680.538 354.772C680.62 355.197 680.608 355.636 680.503 356.056C680.398 356.476 680.202 356.868 679.93 357.205C679.658 357.542 679.315 357.815 678.927 358.006C678.538 358.197 678.112 358.3 677.679 358.31C677.246 358.319 676.817 358.233 676.42 358.059C676.024 357.885 675.67 357.626 675.384 357.301H675.347Z" fill="#4A235A"/>
<path d="M669.594 354.324C671.438 354.755 673.626 352.246 673.626 352.246C673.626 352.246 672.802 349.024 670.946 348.556C670.546 348.391 670.115 348.315 669.683 348.333C669.251 348.351 668.828 348.462 668.443 348.66C668.058 348.857 667.721 349.136 667.454 349.477C667.187 349.818 666.998 350.212 666.899 350.634C666.8 351.055 666.793 351.493 666.879 351.917C666.966 352.341 667.144 352.741 667.4 353.09C667.656 353.438 667.985 353.727 668.364 353.936C668.743 354.145 669.162 354.269 669.594 354.3V354.324Z" fill="#4A235A"/>
<path d="M703.007 366.021C701.519 367.251 698.483 365.873 698.483 365.873C698.483 365.873 697.843 362.602 699.331 361.421C699.623 361.112 699.978 360.869 700.372 360.709C700.765 360.549 701.189 360.475 701.614 360.492C702.038 360.51 702.454 360.618 702.834 360.81C703.213 361.001 703.547 361.272 703.813 361.604C704.079 361.936 704.271 362.32 704.375 362.733C704.48 363.145 704.496 363.575 704.42 363.993C704.345 364.412 704.181 364.809 703.939 365.159C703.698 365.509 703.384 365.803 703.019 366.021H703.007Z" fill="#4A235A"/>
<path d="M696.934 371.494C696.073 369.797 698.016 367.091 698.016 367.091C698.016 367.091 701.335 367.091 702.195 368.85C702.44 369.2 702.606 369.598 702.683 370.018C702.76 370.438 702.745 370.87 702.641 371.284C702.536 371.698 702.344 372.085 702.076 372.418C701.809 372.751 701.473 373.022 701.092 373.214C700.71 373.406 700.292 373.513 699.866 373.529C699.439 373.544 699.014 373.468 698.62 373.305C698.225 373.142 697.871 372.895 697.58 372.583C697.289 372.271 697.068 371.899 696.934 371.494Z" fill="#4A235A"/>
<path d="M692.877 366.439C694.389 367.595 697.401 366.181 697.401 366.181C697.401 366.181 697.954 362.897 696.442 361.753C696.143 361.447 695.782 361.209 695.383 361.056C694.985 360.902 694.557 360.836 694.131 360.862C693.704 360.888 693.288 361.006 692.911 361.208C692.534 361.409 692.205 361.69 691.946 362.03C691.688 362.37 691.505 362.763 691.411 363.18C691.318 363.597 691.315 364.029 691.403 364.448C691.491 364.866 691.669 365.26 691.923 365.604C692.177 365.948 692.503 366.232 692.877 366.439Z" fill="#4A235A"/>
<path d="M722.159 403.225C720.672 404.455 717.623 403.078 717.623 403.078C717.623 403.078 716.996 399.806 718.471 398.625C718.761 398.302 719.117 398.046 719.515 397.874C719.913 397.703 720.344 397.62 720.778 397.632C721.211 397.644 721.637 397.75 722.025 397.943C722.414 398.136 722.755 398.411 723.027 398.749C723.298 399.088 723.493 399.481 723.597 399.902C723.701 400.324 723.712 400.762 723.629 401.188C723.546 401.614 723.372 402.017 723.119 402.369C722.865 402.721 722.537 403.013 722.159 403.225Z" fill="#4A235A"/>
<path d="M716.087 408.698C715.226 407.001 717.156 404.295 717.156 404.295C717.156 404.295 720.488 404.295 721.348 406.054C721.593 406.404 721.759 406.803 721.836 407.223C721.913 407.643 721.898 408.074 721.794 408.488C721.689 408.902 721.497 409.289 721.229 409.622C720.962 409.955 720.626 410.227 720.245 410.418C719.863 410.61 719.445 410.717 719.019 410.733C718.592 410.749 718.167 410.672 717.773 410.509C717.378 410.346 717.023 410.1 716.733 409.787C716.442 409.475 716.221 409.103 716.087 408.698Z" fill="#4A235A"/>
<path d="M712.03 403.643C713.542 404.799 716.553 403.385 716.553 403.385C716.553 403.385 717.107 400.101 715.595 398.957C715.296 398.652 714.935 398.414 714.536 398.26C714.138 398.106 713.71 398.04 713.284 398.066C712.857 398.093 712.441 398.211 712.064 398.412C711.687 398.614 711.358 398.894 711.099 399.234C710.84 399.575 710.658 399.967 710.564 400.384C710.47 400.801 710.467 401.234 710.556 401.652C710.644 402.07 710.822 402.465 711.076 402.808C711.33 403.152 711.655 403.437 712.03 403.643Z" fill="#4A235A"/>
<path d="M675.237 374.913C676.466 373.449 679.711 374.163 679.711 374.163C679.711 374.163 680.94 377.225 679.711 378.689C679.492 379.064 679.194 379.387 678.838 379.635C678.481 379.883 678.075 380.051 677.647 380.126C677.219 380.201 676.78 380.182 676.361 380.07C675.941 379.958 675.551 379.755 675.218 379.477C674.884 379.199 674.615 378.851 674.43 378.458C674.244 378.065 674.147 377.637 674.144 377.202C674.141 376.768 674.233 376.338 674.413 375.942C674.593 375.547 674.858 375.196 675.187 374.913H675.237Z" fill="#4A235A"/>
<path d="M680.105 368.333C681.334 369.833 679.92 372.871 679.92 372.871C679.92 372.871 676.65 373.474 675.482 371.986C675.17 371.692 674.924 371.335 674.762 370.939C674.6 370.542 674.525 370.115 674.543 369.687C674.56 369.259 674.669 368.839 674.862 368.457C675.056 368.075 675.329 367.738 675.664 367.471C675.999 367.204 676.387 367.012 676.803 366.908C677.218 366.804 677.652 366.791 678.073 366.869C678.494 366.947 678.893 367.115 679.244 367.361C679.594 367.608 679.888 367.926 680.105 368.296V368.333Z" fill="#4A235A"/>
<path d="M685.083 372.49C683.362 371.654 680.695 373.646 680.695 373.646C680.695 373.646 680.805 376.967 682.514 377.791C682.867 378.03 683.268 378.191 683.689 378.262C684.109 378.333 684.541 378.312 684.953 378.201C685.365 378.091 685.748 377.893 686.077 377.621C686.406 377.349 686.673 377.009 686.859 376.625C687.045 376.241 687.147 375.821 687.157 375.395C687.166 374.968 687.084 374.544 686.916 374.152C686.747 373.759 686.496 373.408 686.18 373.121C685.864 372.835 685.49 372.619 685.083 372.49Z" fill="#4A235A"/>
<path d="M708.072 431.599C709.301 430.148 712.546 430.849 712.546 430.849C712.546 430.849 713.775 433.923 712.546 435.387C712.325 435.758 712.025 436.077 711.669 436.321C711.312 436.566 710.906 436.73 710.48 436.802C710.054 436.874 709.618 436.853 709.2 436.74C708.783 436.627 708.395 436.425 708.064 436.147C707.732 435.87 707.465 435.523 707.28 435.132C707.096 434.741 706.998 434.315 706.994 433.883C706.99 433.45 707.08 433.022 707.258 432.628C707.435 432.233 707.696 431.882 708.022 431.599H708.072Z" fill="#4A235A"/>
<path d="M712.989 425.019C714.218 426.519 712.804 429.557 712.804 429.557C712.804 429.557 709.534 430.172 708.366 428.672C708.054 428.378 707.809 428.021 707.646 427.624C707.484 427.228 707.409 426.801 707.427 426.373C707.444 425.944 707.553 425.525 707.746 425.143C707.94 424.76 708.213 424.424 708.548 424.157C708.883 423.89 709.271 423.697 709.687 423.594C710.103 423.49 710.536 423.476 710.957 423.555C711.378 423.633 711.777 423.801 712.128 424.047C712.478 424.293 712.772 424.612 712.989 424.982V425.019Z" fill="#4A235A"/>
<path d="M717.906 429.176C716.197 428.352 713.517 430.332 713.517 430.332C713.517 430.332 713.628 433.653 715.349 434.477C715.702 434.719 716.104 434.881 716.526 434.953C716.948 435.026 717.381 435.006 717.795 434.895C718.209 434.785 718.594 434.586 718.924 434.313C719.254 434.04 719.521 433.699 719.707 433.313C719.893 432.927 719.994 432.506 720.002 432.077C720.011 431.649 719.926 431.224 719.755 430.831C719.584 430.438 719.33 430.087 719.011 429.801C718.692 429.516 718.315 429.302 717.906 429.176Z" fill="#4A235A"/>
<path d="M691.218 392.586C693.074 392.168 695.237 394.69 695.237 394.69C695.237 394.69 694.389 397.912 692.533 398.379C692.132 398.546 691.698 398.624 691.264 398.606C690.83 398.588 690.404 398.476 690.018 398.276C689.632 398.077 689.293 397.796 689.027 397.452C688.76 397.109 688.572 396.711 688.474 396.287C688.377 395.863 688.374 395.423 688.465 394.998C688.555 394.572 688.737 394.172 688.998 393.824C689.26 393.476 689.594 393.19 689.977 392.985C690.36 392.779 690.784 392.66 691.218 392.636V392.586Z" fill="#4A235A"/>
<path d="M699.073 390.299C699.073 392.193 696.184 393.792 696.184 393.792C696.184 393.792 693.209 392.304 693.184 390.397C693.116 389.976 693.14 389.545 693.253 389.134C693.367 388.723 693.567 388.34 693.841 388.013C694.115 387.686 694.456 387.422 694.841 387.238C695.226 387.054 695.645 386.956 696.072 386.948C696.498 386.941 696.921 387.026 697.312 387.197C697.703 387.367 698.053 387.62 698.337 387.938C698.622 388.256 698.835 388.631 698.962 389.038C699.089 389.446 699.126 389.876 699.073 390.299Z" fill="#4A235A"/>
<path d="M700.524 396.608C699.663 394.923 696.331 394.874 696.331 394.874C696.331 394.874 694.414 397.592 695.274 399.29C695.406 399.703 695.625 400.083 695.918 400.403C696.211 400.723 696.57 400.976 696.97 401.143C697.37 401.31 697.802 401.388 698.235 401.372C698.669 401.355 699.093 401.244 699.48 401.047C699.866 400.85 700.205 400.571 700.472 400.229C700.74 399.888 700.93 399.492 701.029 399.069C701.129 398.647 701.135 398.208 701.048 397.783C700.96 397.358 700.781 396.957 700.524 396.608Z" fill="#4A235A"/>
<path d="M776.188 433.124C774.417 433.837 771.885 431.685 771.885 431.685C771.885 431.685 772.217 428.376 773.987 427.663C774.356 427.446 774.767 427.312 775.193 427.269C775.618 427.225 776.048 427.274 776.453 427.412C776.858 427.55 777.228 427.774 777.539 428.068C777.849 428.362 778.093 428.72 778.253 429.117C778.413 429.514 778.485 429.94 778.466 430.368C778.446 430.795 778.334 431.213 778.138 431.594C777.942 431.974 777.666 432.308 777.33 432.572C776.993 432.836 776.603 433.024 776.188 433.124Z" fill="#4A235A"/>
<path d="M768.799 436.629C768.467 434.76 771.086 432.718 771.086 432.718C771.086 432.718 774.258 433.727 774.59 435.596C774.728 436.002 774.777 436.433 774.733 436.86C774.689 437.286 774.554 437.699 774.336 438.068C774.118 438.437 773.823 438.755 773.471 439C773.119 439.245 772.718 439.411 772.296 439.486C771.874 439.561 771.44 439.544 771.025 439.436C770.61 439.329 770.224 439.132 769.892 438.861C769.56 438.59 769.29 438.25 769.102 437.865C768.913 437.479 768.81 437.058 768.799 436.629Z" fill="#4A235A"/>
<path d="M766.365 430.627C767.484 432.165 770.779 431.673 770.779 431.673C770.779 431.673 772.242 428.696 771.123 427.159C770.924 426.781 770.646 426.449 770.308 426.188C769.97 425.927 769.58 425.741 769.164 425.644C768.748 425.547 768.315 425.541 767.897 425.626C767.478 425.711 767.083 425.886 766.737 426.137C766.392 426.389 766.105 426.712 765.895 427.085C765.686 427.458 765.56 427.871 765.524 428.297C765.489 428.723 765.546 429.152 765.691 429.554C765.836 429.956 766.066 430.322 766.365 430.627Z" fill="#4A235A"/>
<path d="M759.703 454.844C757.871 454.327 757.17 451.08 757.17 451.08C757.17 451.08 759.457 448.621 761.288 449.162C761.719 449.21 762.133 449.351 762.504 449.575C762.874 449.799 763.192 450.101 763.434 450.46C763.676 450.819 763.838 451.226 763.907 451.654C763.976 452.081 763.952 452.519 763.836 452.936C763.719 453.353 763.513 453.74 763.233 454.07C762.952 454.4 762.603 454.664 762.21 454.846C761.817 455.027 761.389 455.121 760.956 455.121C760.523 455.121 760.095 455.026 759.703 454.844Z" fill="#4A235A"/>
<path d="M751.761 453.11C752.634 451.425 755.953 451.412 755.953 451.412C755.953 451.412 757.859 454.143 756.986 455.828C756.845 456.231 756.619 456.599 756.324 456.907C756.029 457.215 755.671 457.456 755.274 457.613C754.878 457.77 754.452 457.841 754.026 457.819C753.6 457.797 753.183 457.684 752.805 457.487C752.426 457.29 752.094 457.014 751.832 456.678C751.57 456.341 751.382 455.952 751.283 455.537C751.184 455.122 751.176 454.69 751.258 454.271C751.341 453.853 751.512 453.456 751.761 453.11Z" fill="#4A235A"/>
<path d="M753.556 446.862C753.556 448.768 756.408 450.392 756.408 450.392C756.408 450.392 759.395 448.928 759.445 447.022C759.529 446.595 759.519 446.156 759.416 445.733C759.313 445.311 759.118 444.916 758.847 444.577C758.576 444.237 758.234 443.961 757.845 443.767C757.456 443.574 757.029 443.467 756.595 443.455C756.161 443.444 755.729 443.527 755.33 443.699C754.931 443.871 754.574 444.129 754.285 444.453C753.996 444.777 753.781 445.161 753.655 445.577C753.529 445.993 753.495 446.431 753.556 446.862Z" fill="#4A235A"/>
<path d="M746.758 433.85C746.635 435.744 743.611 437.109 743.611 437.109C743.611 437.109 740.759 435.399 740.869 433.493C740.827 433.063 740.878 432.628 741.02 432.22C741.162 431.811 741.391 431.438 741.69 431.127C741.99 430.815 742.354 430.572 742.757 430.415C743.159 430.258 743.591 430.19 744.023 430.216C744.454 430.242 744.875 430.362 745.256 430.566C745.637 430.771 745.968 431.056 746.228 431.401C746.489 431.747 746.671 432.145 746.762 432.567C746.854 432.99 746.852 433.428 746.758 433.85Z" fill="#4A235A"/>
<path d="M746.746 441.967C744.914 441.463 744.201 438.277 744.201 438.277C744.201 438.277 746.475 435.818 748.307 436.346C748.739 436.39 749.157 436.527 749.531 436.749C749.905 436.97 750.226 437.271 750.472 437.629C750.718 437.988 750.882 438.396 750.955 438.825C751.027 439.254 751.004 439.693 750.889 440.112C750.774 440.531 750.568 440.921 750.287 441.252C750.006 441.584 749.657 441.85 749.262 442.033C748.868 442.215 748.438 442.309 748.003 442.309C747.569 442.308 747.139 442.212 746.746 442.028V441.967Z" fill="#4A235A"/>
<path d="M740.279 441.586C742.148 441.241 743.119 438.056 743.119 438.056C743.119 438.056 741.054 435.448 739.185 435.793C738.752 435.802 738.325 435.905 737.935 436.096C737.545 436.287 737.202 436.561 736.928 436.898C736.655 437.235 736.458 437.628 736.352 438.049C736.245 438.47 736.232 438.909 736.313 439.336C736.393 439.762 736.566 440.166 736.818 440.52C737.071 440.873 737.397 441.167 737.775 441.381C738.152 441.595 738.572 441.724 739.004 441.759C739.437 441.795 739.872 441.736 740.279 441.586Z" fill="#4A235A"/>
<path d="M666.914 596.024H762.727C763.057 596.024 763.384 596.098 763.682 596.24C763.981 596.383 764.243 596.59 764.452 596.847C764.66 597.103 764.809 597.403 764.887 597.725C764.965 598.046 764.97 598.381 764.903 598.705L763.612 604.67C763.503 605.163 763.229 605.605 762.836 605.923C762.443 606.24 761.953 606.414 761.448 606.416H669.164C668.713 606.414 668.273 606.275 667.902 606.018C667.532 605.762 667.247 605.399 667.086 604.977L664.836 599.025C664.712 598.689 664.67 598.328 664.715 597.972C664.759 597.616 664.889 597.277 665.093 596.982C665.297 596.688 665.569 596.447 665.886 596.28C666.203 596.113 666.556 596.025 666.914 596.024Z" stroke="#4A235A" stroke-miterlimit="10"/>
<path d="M674.511 615.788C675.581 615.788 756.334 606.416 756.334 606.416H673.54L674.511 615.788Z" fill="#4A235A"/>
<path d="M1377.24 688.057V101.778C1377.24 88.6344 1374.65 75.6196 1369.63 63.4763C1364.6 51.333 1357.23 40.2992 1347.94 31.0049C1338.65 21.7106 1327.63 14.3378 1315.49 9.30771C1303.35 4.27762 1290.34 1.68872 1277.21 1.68872H1168.35" stroke="#4A235A" stroke-miterlimit="10"/>
<path d="M1062.03 30.9234H1290.99L1212.72 6.81749C1186.7 -1.19961 1158.83 -0.933158 1132.97 7.58002L1062.03 30.9234Z" fill="#4A235A"/>
<path d="M709.743 489.982C887.428 534.996 1150.53 710.22 1436.07 419.448" stroke="#4A235A" stroke-miterlimit="10"/>
<path d="M1192.09 234.557C1221.62 234.557 1245.56 210.604 1245.56 181.057C1245.56 151.509 1221.62 127.556 1192.09 127.556C1162.56 127.556 1138.61 151.509 1138.61 181.057C1138.61 210.604 1162.56 234.557 1192.09 234.557Z" stroke="#4A235A" stroke-miterlimit="10"/>
<path d="M1192.09 144.885V181.057H1225.61" stroke="#4A235A" stroke-miterlimit="10"/>
</svg>
